<mxfile host="Electron" modified="2023-12-20T19:14:29.573Z" agent="Mozilla/5.0 (Windows NT 10.0; Win64; x64) AppleWebKit/537.36 (KHTML, like Gecko) draw.io/21.6.1 Chrome/112.0.5615.204 Electron/24.6.1 Safari/537.36" etag="sPtgH7abv-ToYqInRclk" version="21.6.1" type="device">
  <diagram name="Page-1" id="t_0C21Fw7ku_VV-cmdqw">
    <mxGraphModel dx="1404" dy="814" grid="1" gridSize="10" guides="1" tooltips="1" connect="1" arrows="1" fold="1" page="1" pageScale="1" pageWidth="1169" pageHeight="827" math="0" shadow="0">
      <root>
        <mxCell id="0" />
        <mxCell id="1" parent="0" />
        <mxCell id="afxcZgfis14CCVd36Lmh-3" value="" style="html=1;verticalLabelPosition=bottom;align=center;labelBackgroundColor=#ffffff;verticalAlign=top;strokeWidth=2;strokeColor=#330000;shadow=0;dashed=0;shape=mxgraph.ios7.icons.data;fillColor=#FFFF00;" parent="1" vertex="1">
          <mxGeometry x="172.5" y="50.08" width="120" height="180" as="geometry" />
        </mxCell>
        <mxCell id="afxcZgfis14CCVd36Lmh-8" style="edgeStyle=orthogonalEdgeStyle;rounded=0;orthogonalLoop=1;jettySize=auto;html=1;dashed=1;" parent="1" source="afxcZgfis14CCVd36Lmh-4" target="afxcZgfis14CCVd36Lmh-5" edge="1">
          <mxGeometry relative="1" as="geometry">
            <Array as="points">
              <mxPoint x="603" y="270" />
              <mxPoint x="505" y="270" />
            </Array>
          </mxGeometry>
        </mxCell>
        <mxCell id="afxcZgfis14CCVd36Lmh-15" style="edgeStyle=orthogonalEdgeStyle;rounded=0;orthogonalLoop=1;jettySize=auto;html=1;" parent="1" source="afxcZgfis14CCVd36Lmh-4" target="afxcZgfis14CCVd36Lmh-14" edge="1">
          <mxGeometry relative="1" as="geometry" />
        </mxCell>
        <mxCell id="afxcZgfis14CCVd36Lmh-16" style="edgeStyle=orthogonalEdgeStyle;rounded=0;orthogonalLoop=1;jettySize=auto;html=1;" parent="1" source="afxcZgfis14CCVd36Lmh-4" target="afxcZgfis14CCVd36Lmh-3" edge="1">
          <mxGeometry relative="1" as="geometry">
            <Array as="points">
              <mxPoint x="400" y="342" />
              <mxPoint x="400" y="140" />
            </Array>
          </mxGeometry>
        </mxCell>
        <mxCell id="afxcZgfis14CCVd36Lmh-4" value="" style="outlineConnect=0;dashed=0;verticalLabelPosition=bottom;verticalAlign=top;align=center;html=1;shape=mxgraph.aws3.android;fillColor=#FFD44F;gradientColor=none;" parent="1" vertex="1">
          <mxGeometry x="566.5" y="300" width="73.5" height="84" as="geometry" />
        </mxCell>
        <mxCell id="6WfR6cpSbxrgoWtIuUuJ-1" style="edgeStyle=orthogonalEdgeStyle;rounded=0;orthogonalLoop=1;jettySize=auto;html=1;dashed=1;" edge="1" parent="1" source="afxcZgfis14CCVd36Lmh-5" target="afxcZgfis14CCVd36Lmh-6">
          <mxGeometry relative="1" as="geometry" />
        </mxCell>
        <mxCell id="afxcZgfis14CCVd36Lmh-5" value="clean" style="outlineConnect=0;dashed=0;verticalLabelPosition=top;verticalAlign=bottom;align=center;html=1;shape=mxgraph.aws3.worker;fillColor=#D9A741;gradientColor=none;labelPosition=center;" parent="1" vertex="1">
          <mxGeometry x="490" y="190" width="30" height="33" as="geometry" />
        </mxCell>
        <mxCell id="6WfR6cpSbxrgoWtIuUuJ-2" style="edgeStyle=orthogonalEdgeStyle;rounded=0;orthogonalLoop=1;jettySize=auto;html=1;dashed=1;" edge="1" parent="1" source="afxcZgfis14CCVd36Lmh-6" target="afxcZgfis14CCVd36Lmh-7">
          <mxGeometry relative="1" as="geometry" />
        </mxCell>
        <mxCell id="afxcZgfis14CCVd36Lmh-6" value="seed events" style="outlineConnect=0;dashed=0;verticalLabelPosition=top;verticalAlign=bottom;align=center;html=1;shape=mxgraph.aws3.worker;fillColor=#D9A741;gradientColor=none;labelPosition=center;" parent="1" vertex="1">
          <mxGeometry x="580" y="190" width="30" height="33" as="geometry" />
        </mxCell>
        <mxCell id="6WfR6cpSbxrgoWtIuUuJ-4" value="" style="edgeStyle=orthogonalEdgeStyle;rounded=0;orthogonalLoop=1;jettySize=auto;html=1;fontFamily=Helvetica;fontSize=12;fontColor=default;dashed=1;" edge="1" parent="1" source="afxcZgfis14CCVd36Lmh-7" target="6WfR6cpSbxrgoWtIuUuJ-3">
          <mxGeometry relative="1" as="geometry" />
        </mxCell>
        <mxCell id="afxcZgfis14CCVd36Lmh-7" value="seed cities" style="outlineConnect=0;dashed=0;verticalLabelPosition=top;verticalAlign=bottom;align=center;html=1;shape=mxgraph.aws3.worker;fillColor=#D9A741;gradientColor=none;labelPosition=center;" parent="1" vertex="1">
          <mxGeometry x="660" y="190" width="30" height="33" as="geometry" />
        </mxCell>
        <mxCell id="afxcZgfis14CCVd36Lmh-13" style="edgeStyle=orthogonalEdgeStyle;rounded=0;orthogonalLoop=1;jettySize=auto;html=1;entryX=0.5;entryY=1;entryDx=0;entryDy=0;entryPerimeter=0;" parent="1" source="afxcZgfis14CCVd36Lmh-12" target="6WfR6cpSbxrgoWtIuUuJ-11" edge="1">
          <mxGeometry relative="1" as="geometry">
            <mxPoint x="240" y="480" as="targetPoint" />
          </mxGeometry>
        </mxCell>
        <mxCell id="afxcZgfis14CCVd36Lmh-12" value="" style="image;html=1;image=img/lib/clip_art/general/Earth_globe_128x128.png" parent="1" vertex="1">
          <mxGeometry x="137.5" y="480" width="190" height="180" as="geometry" />
        </mxCell>
        <mxCell id="afxcZgfis14CCVd36Lmh-14" value="" style="image;aspect=fixed;html=1;points=[];align=center;fontSize=12;image=img/lib/azure2/ai_machine_learning/Batch_AI.svg;" parent="1" vertex="1">
          <mxGeometry x="870" y="230.08" width="158" height="223.83" as="geometry" />
        </mxCell>
        <mxCell id="6WfR6cpSbxrgoWtIuUuJ-6" value="" style="edgeStyle=orthogonalEdgeStyle;rounded=0;orthogonalLoop=1;jettySize=auto;html=1;fontFamily=Helvetica;fontSize=12;fontColor=default;dashed=1;" edge="1" parent="1" source="6WfR6cpSbxrgoWtIuUuJ-3" target="6WfR6cpSbxrgoWtIuUuJ-5">
          <mxGeometry relative="1" as="geometry">
            <Array as="points">
              <mxPoint x="810" y="207" />
              <mxPoint x="810" y="117" />
            </Array>
          </mxGeometry>
        </mxCell>
        <mxCell id="6WfR6cpSbxrgoWtIuUuJ-3" value="seed people" style="outlineConnect=0;dashed=0;verticalLabelPosition=top;verticalAlign=bottom;align=center;html=1;shape=mxgraph.aws3.worker;fillColor=#D9A741;gradientColor=none;labelPosition=center;" vertex="1" parent="1">
          <mxGeometry x="740" y="190" width="30" height="33" as="geometry" />
        </mxCell>
        <mxCell id="6WfR6cpSbxrgoWtIuUuJ-8" value="" style="edgeStyle=orthogonalEdgeStyle;rounded=0;orthogonalLoop=1;jettySize=auto;html=1;fontFamily=Helvetica;fontSize=12;fontColor=default;dashed=1;" edge="1" parent="1" source="6WfR6cpSbxrgoWtIuUuJ-5" target="6WfR6cpSbxrgoWtIuUuJ-7">
          <mxGeometry relative="1" as="geometry" />
        </mxCell>
        <mxCell id="6WfR6cpSbxrgoWtIuUuJ-5" value="update people" style="outlineConnect=0;dashed=0;verticalLabelPosition=top;verticalAlign=bottom;align=center;html=1;shape=mxgraph.aws3.worker;fillColor=#D9A741;gradientColor=none;labelPosition=center;" vertex="1" parent="1">
          <mxGeometry x="740" y="100" width="30" height="33" as="geometry" />
        </mxCell>
        <mxCell id="6WfR6cpSbxrgoWtIuUuJ-7" value="update cities" style="outlineConnect=0;dashed=0;verticalLabelPosition=top;verticalAlign=bottom;align=center;html=1;shape=mxgraph.aws3.worker;fillColor=#D9A741;gradientColor=none;labelPosition=center;" vertex="1" parent="1">
          <mxGeometry x="640" y="100" width="30" height="33" as="geometry" />
        </mxCell>
        <mxCell id="6WfR6cpSbxrgoWtIuUuJ-12" style="edgeStyle=orthogonalEdgeStyle;rounded=0;orthogonalLoop=1;jettySize=auto;html=1;fontFamily=Helvetica;fontSize=12;fontColor=default;" edge="1" parent="1" source="6WfR6cpSbxrgoWtIuUuJ-11" target="afxcZgfis14CCVd36Lmh-3">
          <mxGeometry relative="1" as="geometry" />
        </mxCell>
        <mxCell id="6WfR6cpSbxrgoWtIuUuJ-11" value="" style="sketch=0;html=1;dashed=0;whitespace=wrap;fillColor=#2875E2;strokeColor=#ffffff;points=[[0.005,0.63,0],[0.1,0.2,0],[0.9,0.2,0],[0.5,0,0],[0.995,0.63,0],[0.72,0.99,0],[0.5,1,0],[0.28,0.99,0]];verticalLabelPosition=bottom;align=center;verticalAlign=top;shape=mxgraph.kubernetes.icon;prIcon=api;fontFamily=Helvetica;fontSize=12;fontColor=default;" vertex="1" parent="1">
          <mxGeometry x="190" y="300" width="85" height="82.01" as="geometry" />
        </mxCell>
      </root>
    </mxGraphModel>
  </diagram>
</mxfile>
